<svg xmlns="http://www.w3.org/2000/svg" width="72mm" height="72mm" viewBox="0 0 204.09 204.09">
  <defs>
    <style>
      .cls-1 {
        fill: #e60064;
      }

      .cls-2 {
        fill: #fff;
      }

      .cls-3 {
        fill: #ee7203;
      }

      .cls-4 {
        fill: #69c0ac;
      }

      .cls-5 {
        fill: #21333a;
      }

      .cls-6 {
        fill: #3fa3dc;
      }
    </style>
  </defs>
  <rect class="cls-5" width="204.09" height="204.09"/>
  <g>
    <path class="cls-5" d="m100.1,141.66l1.95-1.11-33.82-19.54c-.32-.17-.69-.17-.99,0l-17.14,9.92c-.3.17-.49.49-.49.84v19.81c0,.35.2.67.49.84l34.31,19.81c-.3-.17-.49-.49-.49-.84v-1.68l-32.36-18.7v-17.56l32.36,18.7v-.57c0-.35.2-.67.49-.84l.47-.27-32.36-18.7,15.22-8.81,32.36,18.7Z"/>
    <path class="cls-5" d="m153.99,132.61l-1.43.84v17.56l-49.55,28.61v-17.59l33.84-19.54c-.15.1-.32.15-.49.15s-.35-.05-.49-.15l-1.43-.84-32.39,18.7-15.22-8.78,32.36-18.7-1.92-1.11-15.22,8.78-1.95,1.11-15.22,8.81-.47.27c-.3.17-.49.49-.49.84v19.81c0,.35.2.67.49.84l17.14,9.92c.17.07.32.12.49.12s.35-.05.49-.12l51.45-29.72c.32-.17.49-.49.49-.84v-19.81c0,.35-.2.67-.49.84Zm-52.91,47.01l-15.22-8.81v-17.56l15.22,8.78v17.59Z"/>
    <polygon class="cls-3" points="83.92 152.15 83.92 169.71 51.55 151.01 51.55 133.45 83.92 152.15"/>
    <polygon class="cls-3" points="102.05 140.55 84.88 150.47 52.52 131.77 67.74 122.97 100.1 141.66 102.05 140.55"/>
    <path class="cls-5" d="m153.99,111.13l-67.17-38.8-1.95,1.13,66.7,38.5-15.22,8.78-66.7-38.5-1.43.84c-.15.07-.32.12-.49.12s-.35-.05-.49-.12l68.15,39.34v17.56l-83.84-48.4v-17.59l-1.46-.84c-.3-.17-.49-.49-.49-.84v19.81c0,.35.2.67.49.84l67.17,38.8,1.92,1.11,15.24,8.78,1.43.84c.15.1.32.15.49.15s.35-.05.49-.15l15.71-9.05,1.43-.84c.3-.17.49-.49.49-.84v-19.81c0-.35-.2-.67-.49-.84Zm-1.46,20.08l-15.22,8.78v-17.56l15.22-8.78v17.56Z"/>
    <polygon class="cls-2" points="152.54 113.64 152.54 131.21 137.32 139.99 137.32 122.42 152.54 113.64"/>
    <polygon class="cls-6" points="101.09 162.04 101.09 179.63 85.87 170.82 85.87 153.26 101.09 162.04"/>
    <polygon class="cls-6" points="152.56 133.45 152.56 151.01 103.01 179.63 103.01 162.04 136.85 142.5 152.56 133.45"/>
    <polygon class="cls-6" points="134.43 141.66 102.05 160.36 86.83 151.58 119.19 132.88 134.43 141.66"/>
    <path class="cls-5" d="m102.54,21.96c-.3-.17-.67-.17-.99,0l-51.45,29.72c-.3.17-.49.49-.49.84v19.81c0,.35.2.67.49.84l1.46.84,15.69,9.08c.15.07.32.12.49.12s.35-.05.49-.12l1.43-.84,15.22-8.78,1.95-1.13,15.22-8.78-.49-.27c-.3-.17-.47-.49-.47-.84v-.57l-32.39,18.7v-17.59l32.39-18.7v-1.68c0-.35.17-.67.47-.84l-33.82,19.54-15.22-8.78,49.53-28.59,15.22,8.78,1.46-.84c.3-.17.67-.17.96,0l-17.14-9.92Zm-35.77,41.02v17.59l-15.22-8.78v-17.59l15.22,8.78Z"/>
    <polygon class="cls-2" points="151.58 111.97 136.36 120.75 69.66 82.24 84.88 73.46 151.58 111.97"/>
    <polygon class="cls-2" points="135.4 122.42 135.4 139.99 51.55 91.59 51.55 74 67.24 83.08 135.4 122.42"/>
    <polygon class="cls-4" points="66.77 62.98 66.77 80.57 51.55 71.78 51.55 54.2 66.77 62.98"/>
    <polygon class="cls-4" points="101.09 44.28 101.09 61.87 68.7 80.57 68.7 62.98 101.09 44.28"/>
    <polygon class="cls-4" points="117.27 32.71 101.55 41.77 67.74 61.3 52.52 52.52 102.05 23.93 117.27 32.71"/>
    <path class="cls-5" d="m153.99,51.68l-34.31-19.81c-.3-.17-.67-.17-.96,0l-1.46.84-15.71,9.05c-.3.17-.47.49-.47.84v19.83c0,.35.17.67.47.84l.49.27,33.84,19.54c.15.07.3.12.47.12s.35-.05.49-.12l17.14-9.92c.32-.17.49-.49.49-.84v-19.81c0-.35-.17-.67-.49-.84Zm-18.6,28.88l-32.39-18.7v-17.59l32.39,18.7v17.59Zm.96-19.26l-32.36-18.7,15.22-8.78,32.36,18.7-15.22,8.78Zm16.21,10.48l-15.24,8.78v-17.59l15.24-8.78v17.59Z"/>
    <polygon class="cls-1" points="152.56 54.2 152.56 71.78 137.32 80.57 137.32 62.98 152.56 54.2"/>
    <polygon class="cls-1" points="151.58 52.52 136.36 61.3 104 42.6 119.22 33.82 151.58 52.52"/>
    <polygon class="cls-1" points="135.4 62.98 135.4 80.57 103.01 61.87 103.01 44.28 135.4 62.98"/>
  </g>
</svg>