<svg xmlns="http://www.w3.org/2000/svg" width="64" height="64"><linearGradient id="a" gradientUnits="userSpaceOnUse" x1="35.556" y1="0" x2="35.556" y2="56.889"><stop offset="0" stop-color="#a53ca5"/><stop offset="1" stop-color="#641491"/></linearGradient><circle cx="35.556" cy="28.444" r="28.444" fill="url(#a)"/><linearGradient id="b" gradientUnits="userSpaceOnUse" x1="56.889" y1="35.556" x2="0" y2="35.556"><stop offset="0" stop-color="#ff5f50" stop-opacity="0"/><stop offset=".9" stop-color="#ff5f50"/></linearGradient><circle cx="28.444" cy="35.556" r="28.444" fill="url(#b)"/><g><path d="M16.594 33.606c.201.743.755 1.109 1.663 1.109.578 0 1.026-.201 1.321-.59l1.227.708c-.578.838-1.439 1.262-2.571 1.262-.979 0-1.757-.295-2.347-.885-.59-.589-.885-1.333-.885-2.229 0-.885.295-1.628.873-2.217.578-.602 1.333-.896 2.241-.896.861 0 1.581.295 2.135.896.566.602.849 1.333.849 2.217 0 .201-.023.401-.059.625h-4.447zm2.985-1.179c-.177-.802-.767-1.191-1.463-1.191-.813 0-1.368.437-1.545 1.191h3.008zm7.625-1.911c.424.437.637 1.026.637 1.793v3.621H26.32v-3.432c0-.791-.46-1.215-1.167-1.215-.791 0-1.298.484-1.298 1.463v3.185h-1.521v-5.897h1.521v.661c.366-.555.956-.826 1.758-.826.647-.002 1.178.21 1.591.647zm3.39 3.09c.201.743.755 1.109 1.663 1.109.578 0 1.026-.201 1.321-.59l1.227.708c-.578.838-1.439 1.262-2.571 1.262-.979 0-1.757-.295-2.347-.885-.59-.589-.885-1.333-.885-2.229 0-.885.295-1.628.873-2.217.578-.602 1.333-.896 2.241-.896.861 0 1.581.295 2.135.896.566.602.849 1.333.849 2.217 0 .201-.023.401-.059.625h-4.447zm2.984-1.179c-.177-.802-.767-1.191-1.463-1.191-.813 0-1.368.437-1.545 1.191h3.008zm4.275-1.381c.283-.755.991-1.132 1.793-1.132v1.699a1.769 1.769 0 00-1.25.283c-.366.248-.543.648-.543 1.215v2.819h-1.521v-5.897h1.521v1.013zm7.323-1.014h1.486v5.614c0 .908-.307 1.604-.908 2.088s-1.321.719-2.17.719c-1.274 0-2.276-.495-2.795-1.439l1.297-.743c.295.554.814.825 1.545.825.955 0 1.545-.519 1.545-1.451v-.635c-.448.602-1.073.896-1.887.896-.837 0-1.533-.295-2.1-.873-.554-.59-.837-1.309-.837-2.146s.283-1.545.849-2.135a2.783 2.783 0 012.088-.884c.814 0 1.439.295 1.887.896v-.732zm-.472 1.711c-.307-.307-.696-.46-1.18-.46-.483 0-.873.153-1.191.46-.307.294-.46.684-.46 1.144 0 .943.696 1.616 1.651 1.616.956 0 1.651-.672 1.651-1.616.001-.46-.153-.85-.471-1.144zm3.333-3.35c0-.507.425-.943.932-.943.519 0 .944.436.944.943s-.425.932-.944.932a.943.943 0 01-.932-.932zm.177 7.537v-5.897h1.521v5.897h-1.521zm4.299-2.324c.201.743.755 1.109 1.663 1.109.578 0 1.026-.201 1.321-.59l1.227.708c-.578.838-1.439 1.262-2.571 1.262-.979 0-1.757-.295-2.347-.885-.59-.589-.885-1.333-.885-2.229 0-.885.295-1.628.873-2.217.578-.602 1.333-.896 2.241-.896.861 0 1.581.295 2.135.896.566.602.849 1.333.849 2.217 0 .201-.023.401-.059.625h-4.447zm2.985-1.179c-.177-.802-.767-1.191-1.463-1.191-.813 0-1.368.437-1.545 1.191h3.008zM24.221 21.356c.861.177 1.981.589 1.97 1.852 0 .602-.224 1.073-.684 1.404-.448.318-1.014.483-1.687.483-1.215 0-2.041-.472-2.477-1.403l1.321-.743c.177.507.555.767 1.156.767.542 0 .813-.165.813-.507 0-.318-.472-.495-1.073-.648-.873-.224-1.97-.59-1.97-1.816 0-.578.212-1.038.637-1.369.436-.342.967-.507 1.604-.507.956 0 1.781.448 2.241 1.25l-1.298.708c-.188-.401-.507-.602-.943-.602-.389 0-.684.188-.684.483.001.317.473.495 1.074.648zm6.569-.861h-1.333v2.454c0 .637.46.648 1.333.602v1.38c-2.088.236-2.854-.366-2.854-1.981v-2.454H26.91v-1.462h1.026v-1.191l1.521-.46v1.651h1.333v1.461zm5.696-1.463h1.521v5.897h-1.521v-.696c-.46.578-1.097.861-1.923.861-.79 0-1.462-.295-2.029-.896-.554-.602-.837-1.345-.837-2.217 0-.873.283-1.604.837-2.206.566-.602 1.239-.908 2.029-.908.826 0 1.463.283 1.923.861v-.696zm-1.639 4.612c.472 0 .861-.153 1.167-.46.319-.318.472-.72.472-1.203s-.153-.885-.472-1.191c-.307-.318-.696-.472-1.167-.472s-.861.153-1.168.472c-.307.307-.46.708-.46 1.191s.153.885.46 1.203c.306.307.696.46 1.168.46zm9.187-6.971h1.522v8.256h-1.522v-.696c-.448.578-1.085.861-1.911.861-.79 0-1.474-.295-2.041-.896-.554-.602-.837-1.345-.837-2.217 0-.873.283-1.604.837-2.206.566-.602 1.25-.908 2.041-.908.826 0 1.462.283 1.911.861v-3.055zm-1.627 6.971c.472 0 .861-.153 1.167-.46.307-.318.46-.72.46-1.203s-.153-.885-.46-1.191c-.307-.318-.696-.472-1.167-.472s-.861.153-1.18.472c-.307.307-.46.708-.46 1.191s.153.885.46 1.203c.318.307.708.46 1.18.46zm8.071-3.149h-1.333v2.454c0 .637.46.648 1.333.602v1.38c-2.088.236-2.854-.366-2.854-1.981v-2.454h-1.026v-1.462h1.026v-1.191l1.521-.46v1.651h1.333v1.461z" fill="#fff"/></g></svg>